# xmcd
#
# Track frame offsets:
#	150
#	10727
#	23747
#	34812
#	46067
#	57580
#	68102
#	78302
#	88197
#	98960
#	110897
#	122072
#	133532
#	145345
#	155322
#	167090
#	177050
#	189397
#	199345
#	209852
#	220580
#	231125
#
# Disc length: 3207 seconds
#
# Revision: 5
# Processed by: cddbd v1.5.2PL0 Copyright (c) Steve Scherf et al.
# Submitted via: audiograbber 1.83.01
#
DISCID=390c8516
DTITLE=Tymes - The Best Of - Cameo Parkway - 1963-1964
DYEAR=2005
DGENRE=Oldies
TTITLE0=So Much In Love
TTITLE1=Wonderful! Wonderful!
TTITLE2=Come With Me To The Sea
TTITLE3=Stranger In Paradise
TTITLE4=Malibu
TTITLE5=Words Written On Water
TTITLE6=Anymore
TTITLE7=Somewhere
TTITLE8=Here She Comes
TTITLE9=Hello Young Lovers
TTITLE10=Way Beyond Today
TTITLE11=One Little Kiss
TTITLE12=Address Unknown
TTITLE13=Wonderland Of Love
TTITLE14=To Each His Own
TTITLE15=Chances Are
TTITLE16=My Summer Love
TTITLE17=The Magic Of Our Summer Love
TTITLE18=The Lamp Is Low
TTITLE19=And That Reminds Me
TTITLE20=View From My Window
TTITLE21=Goodnight My Love
EXTD=
EXTT0=
EXTT1=
EXTT2=
EXTT3=
EXTT4=
EXTT5=
EXTT6=
EXTT7=
EXTT8=
EXTT9=
EXTT10=
EXTT11=
EXTT12=
EXTT13=
EXTT14=
EXTT15=
EXTT16=
EXTT17=
EXTT18=
EXTT19=
EXTT20=
EXTT21=
PLAYORDER=
